<svg width="288" height="288" viewBox="0 0 288 288" fill="none" xmlns="http://www.w3.org/2000/svg">
<mask id="path-1-outside-1_1_37" maskUnits="userSpaceOnUse" x="74" y="97" width="144" height="98" fill="black">
<rect fill="white" x="74" y="97" width="144" height="98"/>
<path d="M131.075 114.688H94.5125V138.125H125.075C127.908 138.125 130.012 138.771 131.387 140.062C132.804 141.312 133.512 143 133.512 145.125C133.512 147.25 132.804 148.938 131.387 150.188C129.971 151.438 127.867 152.062 125.075 152.062H94.5125V182.25C94.5125 186.083 93.6375 188.938 91.8875 190.812C90.1792 192.646 87.9708 193.562 85.2625 193.562C82.5125 193.562 80.2625 192.625 78.5125 190.75C76.8042 188.875 75.95 186.042 75.95 182.25V111.75C75.95 109.083 76.3458 106.917 77.1375 105.25C77.9292 103.542 79.1583 102.312 80.825 101.562C82.5333 100.771 84.7 100.375 87.325 100.375H131.075C134.033 100.375 136.221 101.042 137.637 102.375C139.096 103.667 139.825 105.375 139.825 107.5C139.825 109.667 139.096 111.417 137.637 112.75C136.221 114.042 134.033 114.688 131.075 114.688ZM216.925 164.5C216.925 170.042 215.487 175.021 212.612 179.438C209.779 183.854 205.612 187.312 200.112 189.812C194.612 192.312 188.092 193.562 180.55 193.562C171.508 193.562 164.05 191.854 158.175 188.438C154.008 185.979 150.612 182.708 147.987 178.625C145.404 174.5 144.112 170.5 144.112 166.625C144.112 164.375 144.883 162.458 146.425 160.875C148.008 159.25 150.008 158.438 152.425 158.438C154.383 158.438 156.029 159.062 157.362 160.312C158.737 161.562 159.904 163.417 160.862 165.875C162.029 168.792 163.279 171.229 164.612 173.188C165.987 175.146 167.904 176.771 170.362 178.062C172.821 179.312 176.05 179.938 180.05 179.938C185.55 179.938 190.008 178.667 193.425 176.125C196.883 173.542 198.612 170.333 198.612 166.5C198.612 163.458 197.675 161 195.8 159.125C193.967 157.208 191.571 155.75 188.612 154.75C185.696 153.75 181.779 152.688 176.862 151.562C170.279 150.021 164.758 148.229 160.3 146.188C155.883 144.104 152.362 141.292 149.737 137.75C147.154 134.167 145.862 129.729 145.862 124.438C145.862 119.396 147.237 114.917 149.987 111C152.737 107.083 156.717 104.083 161.925 102C167.133 99.875 173.258 98.8125 180.3 98.8125C185.925 98.8125 190.779 99.5208 194.862 100.938C198.987 102.312 202.404 104.167 205.112 106.5C207.821 108.792 209.8 111.208 211.05 113.75C212.3 116.292 212.925 118.771 212.925 121.188C212.925 123.396 212.133 125.396 210.55 127.188C209.008 128.938 207.071 129.812 204.737 129.812C202.612 129.812 200.987 129.292 199.862 128.25C198.779 127.167 197.592 125.417 196.3 123C194.633 119.542 192.633 116.854 190.3 114.938C187.967 112.979 184.217 112 179.05 112C174.258 112 170.383 113.062 167.425 115.188C164.508 117.271 163.05 119.792 163.05 122.75C163.05 124.583 163.55 126.167 164.55 127.5C165.55 128.833 166.925 129.979 168.675 130.938C170.425 131.896 172.196 132.646 173.987 133.188C175.779 133.729 178.737 134.521 182.862 135.562C188.029 136.771 192.696 138.104 196.862 139.562C201.071 141.021 204.633 142.792 207.55 144.875C210.508 146.958 212.8 149.604 214.425 152.812C216.092 155.979 216.925 159.875 216.925 164.5Z"/>
</mask>
<path d="M131.075 114.688H94.5125V138.125H125.075C127.908 138.125 130.012 138.771 131.387 140.062C132.804 141.312 133.512 143 133.512 145.125C133.512 147.25 132.804 148.938 131.387 150.188C129.971 151.438 127.867 152.062 125.075 152.062H94.5125V182.25C94.5125 186.083 93.6375 188.938 91.8875 190.812C90.1792 192.646 87.9708 193.562 85.2625 193.562C82.5125 193.562 80.2625 192.625 78.5125 190.75C76.8042 188.875 75.95 186.042 75.95 182.25V111.75C75.95 109.083 76.3458 106.917 77.1375 105.25C77.9292 103.542 79.1583 102.312 80.825 101.562C82.5333 100.771 84.7 100.375 87.325 100.375H131.075C134.033 100.375 136.221 101.042 137.637 102.375C139.096 103.667 139.825 105.375 139.825 107.5C139.825 109.667 139.096 111.417 137.637 112.75C136.221 114.042 134.033 114.688 131.075 114.688ZM216.925 164.5C216.925 170.042 215.487 175.021 212.612 179.438C209.779 183.854 205.612 187.312 200.112 189.812C194.612 192.312 188.092 193.562 180.55 193.562C171.508 193.562 164.05 191.854 158.175 188.438C154.008 185.979 150.612 182.708 147.987 178.625C145.404 174.5 144.112 170.5 144.112 166.625C144.112 164.375 144.883 162.458 146.425 160.875C148.008 159.25 150.008 158.438 152.425 158.438C154.383 158.438 156.029 159.062 157.362 160.312C158.737 161.562 159.904 163.417 160.862 165.875C162.029 168.792 163.279 171.229 164.612 173.188C165.987 175.146 167.904 176.771 170.362 178.062C172.821 179.312 176.05 179.938 180.05 179.938C185.55 179.938 190.008 178.667 193.425 176.125C196.883 173.542 198.612 170.333 198.612 166.5C198.612 163.458 197.675 161 195.8 159.125C193.967 157.208 191.571 155.75 188.612 154.75C185.696 153.75 181.779 152.688 176.862 151.562C170.279 150.021 164.758 148.229 160.3 146.188C155.883 144.104 152.362 141.292 149.737 137.75C147.154 134.167 145.862 129.729 145.862 124.438C145.862 119.396 147.237 114.917 149.987 111C152.737 107.083 156.717 104.083 161.925 102C167.133 99.875 173.258 98.8125 180.3 98.8125C185.925 98.8125 190.779 99.5208 194.862 100.938C198.987 102.312 202.404 104.167 205.112 106.5C207.821 108.792 209.8 111.208 211.05 113.75C212.3 116.292 212.925 118.771 212.925 121.188C212.925 123.396 212.133 125.396 210.55 127.188C209.008 128.938 207.071 129.812 204.737 129.812C202.612 129.812 200.987 129.292 199.862 128.25C198.779 127.167 197.592 125.417 196.3 123C194.633 119.542 192.633 116.854 190.3 114.938C187.967 112.979 184.217 112 179.05 112C174.258 112 170.383 113.062 167.425 115.188C164.508 117.271 163.05 119.792 163.05 122.75C163.05 124.583 163.55 126.167 164.55 127.5C165.55 128.833 166.925 129.979 168.675 130.938C170.425 131.896 172.196 132.646 173.987 133.188C175.779 133.729 178.737 134.521 182.862 135.562C188.029 136.771 192.696 138.104 196.862 139.562C201.071 141.021 204.633 142.792 207.55 144.875C210.508 146.958 212.8 149.604 214.425 152.812C216.092 155.979 216.925 159.875 216.925 164.5Z" fill="white"/>
<path d="M94.5125 114.688V113.688H93.5125V114.688H94.5125ZM94.5125 138.125H93.5125V139.125H94.5125V138.125ZM131.387 140.062L130.703 140.791L130.714 140.802L130.726 140.812L131.387 140.062ZM131.387 150.188L130.726 149.438L131.387 150.188ZM94.5125 152.062V151.062H93.5125V152.062H94.5125ZM91.8875 190.812L91.1564 190.13L91.1559 190.131L91.8875 190.812ZM78.5125 190.75L77.7732 191.424L77.7814 191.432L78.5125 190.75ZM77.1375 105.25L78.0408 105.679L78.0448 105.67L77.1375 105.25ZM80.825 101.562L81.2354 102.474L81.2455 102.47L80.825 101.562ZM137.637 102.375L136.952 103.103L136.963 103.114L136.974 103.124L137.637 102.375ZM137.637 112.75L138.311 113.489L138.312 113.488L137.637 112.75ZM131.075 113.688H94.5125V115.688H131.075V113.688ZM93.5125 114.688V138.125H95.5125V114.688H93.5125ZM94.5125 139.125H125.075V137.125H94.5125V139.125ZM125.075 139.125C127.779 139.125 129.588 139.744 130.703 140.791L132.072 139.334C130.437 137.798 128.038 137.125 125.075 137.125V139.125ZM130.726 140.812C131.899 141.848 132.512 143.247 132.512 145.125H134.512C134.512 142.753 133.709 140.777 132.049 139.313L130.726 140.812ZM132.512 145.125C132.512 147.003 131.899 148.402 130.726 149.438L132.049 150.937C133.709 149.473 134.512 147.497 134.512 145.125H132.512ZM130.726 149.438C129.562 150.464 127.737 151.062 125.075 151.062V153.062C127.997 153.062 130.38 152.411 132.049 150.937L130.726 149.438ZM125.075 151.062H94.5125V153.062H125.075V151.062ZM93.5125 152.062V182.25H95.5125V152.062H93.5125ZM93.5125 182.25C93.5125 185.953 92.665 188.514 91.1564 190.13L92.6186 191.495C94.61 189.361 95.5125 186.214 95.5125 182.25H93.5125ZM91.1559 190.131C89.6531 191.743 87.7184 192.562 85.2625 192.562V194.562C88.2233 194.562 90.7052 193.548 92.6191 191.494L91.1559 190.131ZM85.2625 192.562C82.7673 192.562 80.7897 191.724 79.2436 190.068L77.7814 191.432C79.7353 193.526 82.2577 194.562 85.2625 194.562V192.562ZM79.2517 190.077C77.7776 188.459 76.95 185.913 76.95 182.25H74.95C74.95 186.17 75.8307 189.291 77.7733 191.423L79.2517 190.077ZM76.95 182.25V111.75H74.95V182.25H76.95ZM76.95 111.75C76.95 109.171 77.3347 107.166 78.0408 105.679L76.2342 104.821C75.357 106.668 74.95 108.996 74.95 111.75H76.95ZM78.0448 105.67C78.7387 104.173 79.7952 103.122 81.2354 102.474L80.4146 100.651C78.5214 101.503 77.1197 102.91 76.2302 104.83L78.0448 105.67ZM81.2455 102.47C82.7808 101.758 84.7916 101.375 87.325 101.375V99.375C84.6084 99.375 82.2859 99.7834 80.4045 100.655L81.2455 102.47ZM87.325 101.375H131.075V99.375H87.325V101.375ZM131.075 101.375C133.908 101.375 135.797 102.016 136.952 103.103L138.323 101.647C136.644 100.067 134.159 99.375 131.075 99.375V101.375ZM136.974 103.124C138.198 104.207 138.825 105.632 138.825 107.5H140.825C140.825 105.118 139.994 103.126 138.301 101.626L136.974 103.124ZM138.825 107.5C138.825 109.416 138.193 110.888 136.963 112.012L138.312 113.488C139.999 111.946 140.825 109.917 140.825 107.5H138.825ZM136.964 112.011C135.809 113.064 133.915 113.688 131.075 113.688V115.688C134.152 115.688 136.633 115.02 138.311 113.489L136.964 112.011ZM212.612 179.438L211.774 178.892L211.771 178.898L212.612 179.438ZM158.175 188.438L157.667 189.299L157.672 189.302L158.175 188.438ZM147.987 178.625L147.14 179.156L147.146 179.166L147.987 178.625ZM146.425 160.875L145.709 160.177L145.709 160.177L146.425 160.875ZM157.362 160.312L156.679 161.042L156.684 161.047L156.69 161.052L157.362 160.312ZM160.862 165.875L159.931 166.238L159.934 166.246L160.862 165.875ZM164.612 173.188L163.786 173.75L163.79 173.756L163.794 173.762L164.612 173.188ZM170.362 178.062L169.897 178.948L169.909 178.954L170.362 178.062ZM193.425 176.125L194.022 176.927L194.023 176.926L193.425 176.125ZM195.8 159.125L195.077 159.816L195.085 159.824L195.093 159.832L195.8 159.125ZM188.612 154.75L188.288 155.696L188.292 155.697L188.612 154.75ZM176.862 151.562L176.634 152.536L176.639 152.537L176.862 151.562ZM160.3 146.188L159.873 147.092L159.884 147.097L160.3 146.188ZM149.737 137.75L148.926 138.335L148.934 138.345L149.737 137.75ZM161.925 102L162.296 102.928L162.303 102.926L161.925 102ZM194.862 100.938L194.535 101.882L194.546 101.886L194.862 100.938ZM205.112 106.5L204.46 107.258L204.467 107.263L205.112 106.5ZM210.55 127.188L209.801 126.525L209.8 126.526L210.55 127.188ZM199.862 128.25L199.155 128.957L199.169 128.971L199.183 128.984L199.862 128.25ZM196.3 123L195.399 123.434L195.408 123.453L195.418 123.471L196.3 123ZM190.3 114.938L189.657 115.704L189.665 115.71L190.3 114.938ZM167.425 115.188L168.006 116.001L168.008 116L167.425 115.188ZM164.55 127.5L165.35 126.9L164.55 127.5ZM182.862 135.562L182.618 136.532L182.626 136.534L182.635 136.536L182.862 135.562ZM196.862 139.562L196.532 140.506L196.535 140.507L196.862 139.562ZM207.55 144.875L206.969 145.689L206.974 145.693L207.55 144.875ZM214.425 152.812L213.533 153.264L213.536 153.271L213.54 153.278L214.425 152.812ZM215.925 164.5C215.925 169.858 214.538 174.646 211.774 178.892L213.451 179.983C216.437 175.395 217.925 170.225 217.925 164.5H215.925ZM211.771 178.898C209.056 183.129 205.051 186.469 199.699 188.902L200.526 190.723C206.174 188.156 210.502 184.58 213.454 179.977L211.771 178.898ZM199.699 188.902C194.357 191.33 187.983 192.562 180.55 192.562V194.562C188.2 194.562 194.868 193.295 200.526 190.723L199.699 188.902ZM180.55 192.562C171.628 192.562 164.358 190.876 158.678 187.573L157.672 189.302C163.742 192.832 171.388 194.562 180.55 194.562V192.562ZM158.683 187.576C154.651 185.198 151.37 182.037 148.829 178.084L147.146 179.166C149.855 183.38 153.365 186.761 157.667 189.299L158.683 187.576ZM148.835 178.094C146.326 174.088 145.112 170.27 145.112 166.625H143.112C143.112 170.73 144.482 174.912 147.14 179.156L148.835 178.094ZM145.112 166.625C145.112 164.63 145.785 162.965 147.141 161.573L145.709 160.177C143.981 161.951 143.112 164.12 143.112 166.625H145.112ZM147.141 161.573C148.523 160.155 150.258 159.438 152.425 159.438V157.438C149.758 157.438 147.494 158.345 145.709 160.177L147.141 161.573ZM152.425 159.438C154.149 159.438 155.545 159.979 156.679 161.042L158.046 159.583C156.514 158.146 154.617 157.438 152.425 157.438V159.438ZM156.69 161.052C157.913 162.164 159.007 163.867 159.931 166.238L161.794 165.512C160.802 162.966 159.562 160.961 158.035 159.573L156.69 161.052ZM159.934 166.246C161.119 169.21 162.401 171.716 163.786 173.75L165.439 172.625C164.157 170.742 162.939 168.373 161.791 165.504L159.934 166.246ZM163.794 173.762C165.274 175.87 167.321 177.594 169.897 178.948L170.828 177.177C168.487 175.948 166.701 174.422 165.431 172.613L163.794 173.762ZM169.909 178.954C172.557 180.3 175.958 180.938 180.05 180.938V178.938C176.142 178.938 173.085 178.325 170.816 177.171L169.909 178.954ZM180.05 180.938C185.702 180.938 190.388 179.63 194.022 176.927L192.828 175.323C189.628 177.703 185.398 178.938 180.05 178.938V180.938ZM194.023 176.926C197.698 174.181 199.612 170.692 199.612 166.5H197.612C197.612 169.975 196.069 172.902 192.827 175.324L194.023 176.926ZM199.612 166.5C199.612 163.235 198.598 160.508 196.507 158.418L195.093 159.832C196.752 161.492 197.612 163.681 197.612 166.5H199.612ZM196.523 158.434C194.56 156.381 192.017 154.845 188.933 153.803L188.292 155.697C191.125 156.655 193.374 158.035 195.077 159.816L196.523 158.434ZM188.937 153.804C185.973 152.788 182.018 151.716 177.086 150.588L176.639 152.537C181.54 153.659 185.419 154.712 188.288 155.696L188.937 153.804ZM177.091 150.589C170.55 149.057 165.096 147.284 160.716 145.278L159.884 147.097C164.42 149.174 170.009 150.985 176.634 152.536L177.091 150.589ZM160.727 145.283C156.443 143.262 153.057 140.55 150.541 137.155L148.934 138.345C151.668 142.033 155.324 144.946 159.873 147.092L160.727 145.283ZM150.549 137.165C148.111 133.784 146.862 129.562 146.862 124.438H144.862C144.862 129.897 146.197 134.55 148.926 138.335L150.549 137.165ZM146.862 124.438C146.862 119.59 148.181 115.314 150.806 111.575L149.169 110.425C146.294 114.52 144.862 119.202 144.862 124.438H146.862ZM150.806 111.575C153.426 107.843 157.237 104.952 162.296 102.928L161.554 101.072C156.197 103.214 152.049 106.324 149.169 110.425L150.806 111.575ZM162.303 102.926C167.365 100.86 173.356 99.8125 180.3 99.8125V97.8125C173.16 97.8125 166.902 98.8895 161.547 101.074L162.303 102.926ZM180.3 99.8125C185.845 99.8125 190.583 100.511 194.535 101.882L195.19 99.9927C190.975 98.5304 186.005 97.8125 180.3 97.8125V99.8125ZM194.546 101.886C198.574 103.229 201.869 105.026 204.46 107.258L205.765 105.742C202.939 103.308 199.401 101.396 195.179 99.9888L194.546 101.886ZM204.467 107.263C207.095 109.488 208.977 111.8 210.153 114.191L211.947 113.309C210.623 110.617 208.546 108.095 205.758 105.737L204.467 107.263ZM210.153 114.191C211.347 116.619 211.925 118.948 211.925 121.188H213.925C213.925 118.594 213.253 115.964 211.947 113.309L210.153 114.191ZM211.925 121.188C211.925 123.131 211.237 124.9 209.801 126.525L211.299 127.85C213.03 125.892 213.925 123.661 213.925 121.188H211.925ZM209.8 126.526C208.448 128.061 206.784 128.812 204.737 128.812V130.812C207.358 130.812 209.569 129.814 211.3 127.849L209.8 126.526ZM204.737 128.812C202.766 128.812 201.421 128.33 200.542 127.516L199.183 128.984C200.554 130.253 202.458 130.812 204.737 130.812V128.812ZM200.57 127.543C199.59 126.563 198.458 124.915 197.182 122.529L195.418 123.471C196.726 125.918 197.968 127.77 199.155 128.957L200.57 127.543ZM197.201 122.566C195.488 119.011 193.406 116.195 190.935 114.165L189.665 115.71C191.86 117.513 193.779 120.072 195.399 123.434L197.201 122.566ZM190.943 114.172C188.341 111.988 184.302 111 179.05 111V113C184.131 113 187.593 113.971 189.657 115.703L190.943 114.172ZM179.05 111C174.115 111 170.016 112.095 166.842 114.375L168.008 116C170.75 114.03 174.402 113 179.05 113V111ZM166.844 114.374C163.727 116.6 162.05 119.398 162.05 122.75H164.05C164.05 120.185 165.289 117.942 168.006 116.001L166.844 114.374ZM162.05 122.75C162.05 124.777 162.607 126.576 163.75 128.1L165.35 126.9C164.493 125.757 164.05 124.39 164.05 122.75H162.05ZM163.75 128.1C164.851 129.568 166.344 130.801 168.195 131.815L169.155 130.06C167.506 129.157 166.249 128.099 165.35 126.9L163.75 128.1ZM168.195 131.815C170.001 132.804 171.836 133.582 173.698 134.145L174.277 132.23C172.556 131.71 170.849 130.988 169.155 130.06L168.195 131.815ZM173.698 134.145C175.514 134.694 178.492 135.49 182.618 136.532L183.107 134.593C178.983 133.552 176.045 132.765 174.277 132.23L173.698 134.145ZM182.635 136.536C187.773 137.738 192.405 139.062 196.532 140.506L197.193 138.619C192.987 137.146 188.285 135.804 183.09 134.589L182.635 136.536ZM196.535 140.507C200.674 141.942 204.146 143.673 206.969 145.689L208.131 144.061C205.12 141.911 201.468 140.1 197.19 138.618L196.535 140.507ZM206.974 145.693C209.8 147.682 211.982 150.203 213.533 153.264L215.317 152.361C213.618 149.005 211.217 146.234 208.126 144.057L206.974 145.693ZM213.54 153.278C215.112 156.265 215.925 159.991 215.925 164.5H217.925C217.925 159.759 217.071 155.693 215.31 152.347L213.54 153.278Z" fill="white" mask="url(#path-1-outside-1_1_37)"/>
<path d="M44.5 16L44.5 191" stroke="white" stroke-width="13" stroke-linecap="round"/>
<path d="M16 43.5L191 43.5" stroke="white" stroke-width="13" stroke-linecap="round"/>
<path d="M243.5 272L243.5 97" stroke="white" stroke-width="13" stroke-linecap="round"/>
<path d="M272 244.5L97 244.5" stroke="white" stroke-width="13" stroke-linecap="round"/>
</svg>
